<svg xmlns="http://www.w3.org/2000/svg" width="640" height="360" viewBox="0 0 640 360">
  <defs>
    <linearGradient id="bg" x1="0" y1="0" x2="1" y2="1">
      <stop offset="0" stop-color="#FFF6EC"/>
      <stop offset="1" stop-color="#F7D7C6"/>
    </linearGradient>
    <linearGradient id="bowl" x1="0" y1="0" x2="0" y2="1">
      <stop offset="0" stop-color="#F7C7B2"/>
      <stop offset="1" stop-color="#EFB099"/>
    </linearGradient>
  </defs>
  <rect width="640" height="360" rx="28" fill="url(#bg)"/>
  <ellipse cx="320" cy="246" rx="170" ry="28" fill="#EFC2AD" opacity="0.45"/>
  <path d="M170 205 C190 275 450 275 470 205 Z" fill="url(#bowl)"/>
  <ellipse cx="320" cy="205" rx="165" ry="36" fill="#FCEFE7" stroke="#EFB59C" stroke-width="4"/>
  <ellipse cx="320" cy="200" rx="130" ry="22" fill="#F7A786" opacity="0.35"/>
  <path d="M250 120 C235 140 235 160 250 180" stroke="#E8B7A1" stroke-width="8" stroke-linecap="round" fill="none"/>
  <path d="M320 110 C305 132 305 154 320 176" stroke="#E8B7A1" stroke-width="8" stroke-linecap="round" fill="none"/>
  <path d="M390 120 C375 140 375 160 390 180" stroke="#E8B7A1" stroke-width="8" stroke-linecap="round" fill="none"/>
  <circle cx="265" cy="195" r="10" fill="#FBD7C7"/>
  <circle cx="350" cy="192" r="8" fill="#FBD7C7"/>
  <circle cx="305" cy="210" r="6" fill="#FBD7C7"/>
</svg>
