<svg width="180" height="180" viewBox="0 0 180 180" fill="none" xmlns="http://www.w3.org/2000/svg">
  <rect width="180" height="180" rx="40" fill="#7ED9B7" />
  <g transform="translate(36 36) scale(4.5)" fill="none" stroke="#1F3D32" stroke-width="1.6" stroke-linecap="round" stroke-linejoin="round">
    <path d="M17 21a1 1 0 0 0 1-1v-5.35c0-.457.316-.844.727-1.041a4 4 0 0 0-2.134-7.589 5 5 0 0 0-9.186 0 4 4 0 0 0-2.134 7.588c.411.198.727.585.727 1.041V20a1 1 0 0 0 1 1Z" />
    <path d="M6 17h12" />
  </g>
</svg>
